<svg width="20" height="20" viewBox="0 0 20 20" fill="none" xmlns="http://www.w3.org/2000/svg">
<path d="M17.5 1.25C17.8315 1.25 18.1495 1.3817 18.3839 1.61612C18.6183 1.85054 18.75 2.16848 18.75 2.5V17.5C18.75 17.8315 18.6183 18.1495 18.3839 18.3839C18.1495 18.6183 17.8315 18.75 17.5 18.75H2.5C2.16848 18.75 1.85054 18.6183 1.61612 18.3839C1.3817 18.1495 1.25 17.8315 1.25 17.5V2.5C1.25 2.16848 1.3817 1.85054 1.61612 1.61612C1.85054 1.3817 2.16848 1.25 2.5 1.25H17.5ZM2.5 0C1.83696 0 1.20107 0.263392 0.732233 0.732233C0.263392 1.20107 0 1.83696 0 2.5L0 17.5C0 18.163 0.263392 18.7989 0.732233 19.2678C1.20107 19.7366 1.83696 20 2.5 20H17.5C18.163 20 18.7989 19.7366 19.2678 19.2678C19.7366 18.7989 20 18.163 20 17.5V2.5C20 1.83696 19.7366 1.20107 19.2678 0.732233C18.7989 0.263392 18.163 0 17.5 0L2.5 0Z" fill="#333333"/>
<path d="M13.7126 6.21248C13.8875 6.03907 14.1237 5.94148 14.37 5.9408C14.6163 5.94012 14.853 6.03641 15.0289 6.20885C15.2048 6.38129 15.3057 6.61603 15.3099 6.86232C15.3141 7.1086 15.2212 7.34665 15.0513 7.52498L10.0613 13.7625C9.97556 13.8549 9.87206 13.929 9.75699 13.9804C9.64192 14.0319 9.51766 14.0596 9.39164 14.062C9.26561 14.0643 9.14041 14.0412 9.02352 13.994C8.90663 13.9469 8.80045 13.8766 8.71133 13.7875L5.40507 10.48C5.31297 10.3942 5.23909 10.2907 5.18785 10.1757C5.13661 10.0607 5.10906 9.93652 5.10684 9.81064C5.10461 9.68476 5.12777 9.55972 5.17492 9.44299C5.22207 9.32625 5.29225 9.22021 5.38128 9.13119C5.4703 9.04216 5.57634 8.97198 5.69308 8.92483C5.80981 8.87768 5.93485 8.85452 6.06073 8.85674C6.18661 8.85897 6.31075 8.88652 6.42575 8.93776C6.54075 8.989 6.64425 9.06288 6.73007 9.15498L9.34758 11.7712L13.6888 6.23998C13.6966 6.2303 13.7049 6.22111 13.7138 6.21248H13.7126Z" fill="#333333"/>
</svg>
