<svg width="40" height="40" viewBox="0 0 40 40" fill="none" xmlns="http://www.w3.org/2000/svg">
<path fill-rule="evenodd" clip-rule="evenodd" d="M20 40C31.0457 40 40 31.0457 40 20C40 8.9543 31.0457 0 20 0C8.9543 0 0 8.9543 0 20C0 31.0457 8.9543 40 20 40ZM17.5528 20.6154V30H21.228V20.6154H24.8359L25 17.2365H21.228V14.7693C21.228 13.8377 21.4288 13.2764 22.6818 13.2764C23.8395 13.2764 24.9004 13.2864 24.9004 13.2864L24.9824 10.1311C24.9824 10.1311 23.9421 10 22.5353 10C19.0607 10 17.5528 12.0826 17.5528 14.3505V17.2365H15V20.6154H17.5528Z" fill="#F9F9FC"/>
</svg>
