<svg width="21" height="20" viewBox="0 0 21 20" fill="none" xmlns="http://www.w3.org/2000/svg">
<path d="M20.3053 8.0415H19.4998V8H10.4999V12H16.1513C15.3269 14.3285 13.1114 16 10.4999 16C7.18644 16 4.49996 13.3135 4.49996 10C4.49996 6.6865 7.18644 4 10.4999 4C12.0294 4 13.4209 4.577 14.4804 5.5195L17.3088 2.691C15.5229 1.0265 13.1339 0 10.4999 0C4.97746 0 0.5 4.4775 0.5 10C0.5 15.5225 4.97746 20 10.4999 20C16.0223 20 20.4998 15.5225 20.4998 10C20.4998 9.3295 20.4308 8.675 20.3053 8.0415Z" fill="#FFC107"/>
<path d="M1.65308 5.3455L4.93854 7.755C5.82754 5.554 7.98052 4 10.5 4C12.0295 4 13.421 4.577 14.4805 5.5195L17.3089 2.691C15.5229 1.0265 13.134 0 10.5 0C6.65903 0 3.32806 2.1685 1.65308 5.3455Z" fill="#FF3D00"/>
<path d="M10.4998 20C13.0828 20 15.4298 19.0115 17.2043 17.404L14.1093 14.785C13.0716 15.5742 11.8035 16.001 10.4998 16C7.89885 16 5.69037 14.3415 4.85838 12.027L1.59741 14.5395C3.2524 17.778 6.61336 20 10.4998 20Z" fill="#4CAF50"/>
<path d="M20.3054 8.0415H19.4999V8H10.5V12H16.1514C15.7571 13.1082 15.0466 14.0766 14.108 14.7855L14.1095 14.7845L17.2044 17.4035C16.9854 17.6025 20.4999 15 20.4999 10C20.4999 9.3295 20.4309 8.675 20.3054 8.0415Z" fill="#1976D2"/>
</svg>
