<svg width="40" height="40" viewBox="0 0 40 40" fill="none" xmlns="http://www.w3.org/2000/svg">
<path fill-rule="evenodd" clip-rule="evenodd" d="M20 40C31.0457 40 40 31.0457 40 20C40 8.9543 31.0457 0 20 0C8.9543 0 0 8.9543 0 20C0 31.0457 8.9543 40 20 40ZM15.9574 10H24.0416C25.6212 10.0016 27.1357 10.6297 28.2527 11.7466C29.3698 12.8634 29.9981 14.3778 30 15.9574V24.0416C29.9984 25.6212 29.3703 27.1357 28.2534 28.2527C27.1366 29.3698 25.6222 29.9981 24.0426 30H15.9584C14.3788 29.9984 12.8643 29.3703 11.7473 28.2534C10.6302 27.1366 10.0019 25.6222 10 24.0426V15.9584C10.0016 14.3788 10.6297 12.8643 11.7466 11.7473C12.8634 10.6302 14.3778 10.0019 15.9574 10ZM27.688 25.552C27.8864 25.0731 27.9885 24.5599 27.9885 24.0416V15.9584C27.9885 14.9118 27.5728 13.9081 26.8328 13.1679C26.0928 12.4277 25.0892 12.0118 24.0426 12.0115H15.9584C14.9118 12.0115 13.9081 12.4272 13.1679 13.1672C12.4277 13.9072 12.0118 14.9108 12.0115 15.9574V24.0416C12.0115 25.0882 12.4272 26.0919 13.1672 26.8321C13.9072 27.5723 14.9108 27.9882 15.9574 27.9885H24.0416C24.5599 27.9885 25.0731 27.8864 25.552 27.688C26.0308 27.4897 26.466 27.199 26.8325 26.8325C27.199 26.466 27.4897 26.0308 27.688 25.552ZM19.9995 14.8275C18.6286 14.8296 17.3144 15.3752 16.345 16.3448C15.3757 17.3143 14.8303 18.6286 14.8285 19.9995C14.8301 21.3709 15.3755 22.6856 16.345 23.6553C17.3146 24.6251 18.6292 25.1707 20.0005 25.1726C21.372 25.171 22.6869 24.6255 23.6567 23.6557C24.6265 22.6859 25.172 21.371 25.1736 19.9995C25.1715 18.6282 24.6256 17.3137 23.6556 16.3443C22.6857 15.375 21.3709 14.8298 19.9995 14.8285V14.8275ZM19.9995 23.1611C19.1613 23.1611 18.3574 22.8281 17.7647 22.2354C17.172 21.6427 16.839 20.8388 16.839 20.0005C16.839 19.1623 17.172 18.3584 17.7647 17.7657C18.3574 17.173 19.1613 16.84 19.9995 16.84C20.8378 16.84 21.6417 17.173 22.2344 17.7657C22.8271 18.3584 23.1601 19.1623 23.1601 20.0005C23.1601 20.8388 22.8271 21.6427 22.2344 22.2354C21.6417 22.8281 20.8378 23.1611 19.9995 23.1611ZM26.4218 14.8666C26.4218 15.551 25.867 16.1058 25.1826 16.1058C24.4982 16.1058 23.9434 15.551 23.9434 14.8666C23.9434 14.1822 24.4982 13.6274 25.1826 13.6274C25.867 13.6274 26.4218 14.1822 26.4218 14.8666Z" fill="#F9F9FC"/>
</svg>
